PathFileType	4	(X/Y/Z)	C:\Users\Biomechanik\SynologyDrive\AlexP\Athlete_03\Athlete_3_25_03_31\Deadlift_bar_01\marker_experimental.trc
DataRate	CameraRate	NumFrames	NumMarkers	Units	OrigDataRate	OrigDataStartFrame	OrigNumFrames
200.000000	200.000000	4	55	mm	200.000000	732	1464
Frame#	Time	BL			BR			GLAB			RFHD			LFHD			C7			T6			SPINMOL			SPINM2			SPINM3			T12			BELTOL			BELT2			BELT3			SACROL			SACR2			SACR3			LTHOL			LTH2			LTH3			LSHAOL			LSHA2			LSHA3			LHEE			LTOE			LM5			RTHOL			RTH2			RTH3			RSHAOL			RSHA2			RSHA3			RHEE			RTOE			RM5			STRN			XIPH			LACR			LUAOL			LUA2			LUA3			LLAOL			LLA2			LLA3			LWRR			LWRU			RACR			RUAOL			RUA2			RUA3			RLAOL			RLA2			RLA3			RWRR			RWRU			
		X1	Y1	Z1	X2	Y2	Z2	X3	Y3	Z3	X4	Y4	Z4	X5	Y5	Z5	X6	Y6	Z6	X7	Y7	Z7	X8	Y8	Z8	X9	Y9	Z9	X10	Y10	Z10	X11	Y11	Z11	X12	Y12	Z12	X13	Y13	Z13	X14	Y14	Z14	X15	Y15	Z15	X16	Y16	Z16	X17	Y17	Z17	X18	Y18	Z18	X19	Y19	Z19	X20	Y20	Z20	X21	Y21	Z21	X22	Y22	Z22	X23	Y23	Z23	X24	Y24	Z24	X25	Y25	Z25	X26	Y26	Z26	X27	Y27	Z27	X28	Y28	Z28	X29	Y29	Z29	X30	Y30	Z30	X31	Y31	Z31	X32	Y32	Z32	X33	Y33	Z33	X34	Y34	Z34	X35	Y35	Z35	X36	Y36	Z36	X37	Y37	Z37	X38	Y38	Z38	X39	Y39	Z39	X40	Y40	Z40	X41	Y41	Z41	X42	Y42	Z42	X43	Y43	Z43	X44	Y44	Z44	X45	Y45	Z45	X46	Y46	Z46	X47	Y47	Z47	X48	Y48	Z48	X49	Y49	Z49	X50	Y50	Z50	X51	Y51	Z51	X52	Y52	Z52	X53	Y53	Z53	X54	Y54	Z54	X55	Y55	Z55	

733	3.66	321.0425109863281	292.9052124023439	-2226.681640625	332.428955078125	278.9062805175781	-205.0588989257812	603.281005859375	1086.952270507812	-1200.29833984375	571.7879028320312	1132.669311523438	-1136.978393554688	575.2467651367188	1127.138671875	-1272.429931640625	323.3740234375	1068.675903320312	-1206.17333984375	181.8681335449219	984.9111328125001	-1208.212524414062	156.6198272705078	966.5806274414064	-1230.045043945312	148.0314025878906	961.1712036132814	-1181.03369140625	108.6803665161133	922.4777221679689	-1217.739501953125	76.25687408447266	886.2517700195314	-1215.918701171875	39.32202529907227	887.6737670898439	-1230.505126953125	38.67626190185547	883.0665283203126	-1179.995971679688	-8.292658805847168	846.5828857421876	-1209.654296875	-97.80533599853516	761.1782226562501	-1237.22216796875	-95.72055053710938	756.3701782226564	-1185.982421875	-126.2404632568359	705.1857299804689	-1214.75634765625	123.859733581543	502.7133789062501	-1428.877075195312	143.7794494628906	430.8531188964845	-1404.611450195312	173.4758453369141	468.3529663085939	-1421.7919921875	239.3807067871094	290.714324951172	-1435.262329101562	173.1784057617188	247.8678283691407	-1422.546997070312	219.7681579589844	233.9796295166016	-1425.75537109375	78.84288024902344	69.5334014892579	-1317.710815429688	294.6775817871094	46.76527023315438	-1331.200805664062	242.2654113769531	29.58706855773935	-1431.31591796875	113.8199844360352	497.8423156738282	-1007.419494628906	189.5079345703125	517.3060302734376	-988.8140258789062	171.8660736083984	475.0952453613282	-1009.761901855469	233.2319793701172	311.6942443847657	-998.3233032226562	242.6904449462891	233.4853210449219	-1005.312744140625	200.8420104980469	260.0245361328126	-1011.709594726562	81.71598815917969	63.68902206420906	-1120.851806640625	292.5299987792969	46.41052246093756	-1098.514526367188	234.8858642578125	39.61980438232428	-1000.319152832031	409.0057373046875	892.2527465820314	-1210.646728515625	334.4907836914062	766.5715332031251	-1214.415649414062	368.3808288574219	969.5332641601564	-1378.666015625	337.7131958007812	822.3394165039064	-1475.235107421875	316.3075561523438	763.5822143554689	-1495.916015625	354.6542053222656	760.5686645507814	-1461.743408203125	318.2596130371094	557.0054931640626	-1506.553344726562	269.5832214355469	495.3085937500001	-1497.558227539062	319.0381774902344	495.5084533691407	-1504.695922851562	343.4111938476562	391.7487792968751	-1503.70263671875	331.1985473632812	386.5188598632814	-1425.971557617188	377.4261169433594	961.3947753906251	-1047.46142578125	341.7698364257812	821.2051391601564	-956.6513671875	353.5486145019531	757.4099121093751	-960.1736450195312	315.0537109375	767.8096923828125	-927.5008544921875	311.2994384765625	544.03564453125	-923.8880615234375	362.6221923828125	483.1871337890626	-915.6616821289062	313.3164672851562	481.0421447753907	-923.504150390625	350.3130798339844	394.3333129882813	-923.4417114257812	322.9639587402344	373.6223754882813	-998.7374267578125	
734	3.665	321.1571350097656	292.9451904296876	-2226.72412109375	332.3227844238281	278.8756103515625	-205.0840301513672	602.9375610351562	1087.947265625	-1200.223999023438	571.22119140625	1133.514404296875	-1136.898803710938	574.6969604492188	1128.015625	-1272.354125976562	323.10302734375	1068.634155273438	-1206.143798828125	181.8731079101562	984.5894165039064	-1208.189208984375	156.7187347412109	966.2471923828126	-1230.036376953125	148.1201019287109	960.8678588867189	-1181.039916992188	108.8086776733398	922.1249389648439	-1217.730346679688	76.41419982910156	885.9785766601564	-1215.897338867188	39.46927261352539	887.4296875000001	-1230.473388671875	38.81435394287109	882.8537597656251	-1179.970458984375	-8.168235778808594	846.3798217773439	-1209.632690429688	-97.73146820068359	760.9944458007814	-1237.177978515625	-95.65631866455078	756.1867065429689	-1185.935180664062	-126.1511840820312	704.9916381835939	-1214.702026367188	123.981575012207	502.5681152343751	-1428.8291015625	143.9367370605469	430.7155761718751	-1404.548950195312	173.6085662841797	468.2304077148439	-1421.744506835938	239.4598236083984	290.6876220703126	-1435.240112304688	173.2480316162109	247.8567504882813	-1422.51611328125	219.8337554931641	233.9617004394532	-1425.736206054688	78.84754943847656	69.53370666503915	-1317.707275390625	294.6801147460938	46.75748062133797	-1331.197631835938	242.2527770996094	29.60077095031747	-1431.310791015625	113.9569091796875	497.7009277343751	-1007.359375	189.6471252441406	517.1824340820314	-988.7691040039062	172.0081787109375	474.9630126953126	-1009.701721191406	233.3489990234375	311.6265563964844	-998.2801513671875	242.7955017089844	233.381820678711	-1005.320190429688	200.9351959228516	259.9743957519532	-1011.676940917969	81.72084045410156	63.6930007934571	-1120.855590820312	292.5171508789062	46.40338897705085	-1098.5302734375	234.8827667236328	39.61244583129889	-1000.318298339844	408.9916381835938	892.3945922851564	-1210.603515625	334.8391723632812	766.5347290039064	-1214.283447265625	368.084716796875	969.5958862304689	-1378.689453125	337.3226318359375	822.4086914062501	-1475.380615234375	315.9395751953125	763.6338500976564	-1496.036376953125	354.3428649902344	760.6451416015626	-1461.9072265625	317.8703918457031	556.9857788085939	-1506.6142578125	269.2819213867188	495.2567138671876	-1497.4111328125	318.7115173339844	495.4916992187501	-1504.724243164062	343.2585144042969	391.7285156250001	-1503.752197265625	331.2076110839844	386.5449829101564	-1426.01123046875	377.0943603515625	961.4690551757814	-1047.4130859375	341.3943481445312	821.2731933593751	-956.4734497070312	353.2749328613281	757.4835205078126	-960.0310668945312	314.6958923339844	767.832763671875	-927.4052124023438	311.048583984375	544.0360107421875	-923.9347534179688	362.3959045410156	483.2368774414063	-915.5785522460938	313.0973510742188	481.0386047363282	-923.5725708007812	350.1614379882812	394.3401794433594	-923.4177856445312	322.8668212890625	373.5710449218751	-998.7332153320312	
735	3.67	321.2751159667969	292.9765930175782	-2226.765625	332.2190246582031	278.8455200195312	-205.1116943359375	602.5946044921875	1088.9501953125	-1200.1455078125	570.65087890625	1134.362670898438	-1136.814086914062	574.1444091796875	1128.899291992188	-1272.2744140625	322.8392639160156	1068.591918945312	-1206.115600585938	181.8835601806641	984.2714233398439	-1208.166748046875	156.8246154785156	965.9181518554689	-1230.02734375	148.2094573974609	960.5688476562501	-1181.045654296875	108.9387741088867	921.7788696289064	-1217.722534179688	76.57089996337891	885.7094116210939	-1215.876586914062	39.61433410644531	887.1912231445314	-1230.442993164062	38.9514045715332	882.6458740234376	-1179.9462890625	-8.049896240234375	846.1829223632814	-1209.617431640625	-97.65872192382812	760.8159790039064	-1237.137817382812	-95.59474945068359	756.0082397460939	-1185.892333984375	-126.0637283325195	704.8037109375001	-1214.652221679688	124.1003570556641	502.429412841797	-1428.78271484375	144.0902252197266	430.5855712890626	-1404.489379882812	173.7353363037109	468.1141357421876	-1421.703247070312	239.5364379882812	290.661834716797	-1435.216186523438	173.3158569335938	247.8454742431641	-1422.48388671875	219.8971710205078	233.9450836181641	-1425.71630859375	78.85240173339844	69.53412628173837	-1317.703735351562	294.6826477050781	46.75026702880867	-1331.193359375	242.2417907714844	29.61382293701181	-1431.306274414062	114.0912704467773	497.5601196289063	-1007.308654785156	189.7856750488281	517.0609130859376	-988.7341918945312	172.1492004394531	474.8330688476563	-1009.651245117188	233.4643402099609	311.5602111816407	-998.242919921875	242.9007568359375	233.2788085937501	-1005.333923339844	201.02783203125	259.9257812500001	-1011.648559570312	81.72573852539062	63.69638442993171	-1120.859741210938	292.5025329589844	46.39604187011725	-1098.5498046875	234.8798522949219	39.60463714599616	-1000.319213867188	408.980712890625	892.5320434570314	-1210.557495117188	335.1858215332031	766.4970703125001	-1214.153564453125	367.7986450195312	969.6539916992189	-1378.70947265625	336.9486999511719	822.4746704101564	-1475.510131835938	315.5931396484375	763.6898193359376	-1496.154296875	354.0470275878906	760.7138671875001	-1462.060668945312	317.4948120117188	556.9674072265626	-1506.672241210938	268.9983215332031	495.1986083984376	-1497.267822265625	318.3984375	495.4743957519532	-1504.751708984375	343.1138916015625	391.7061157226564	-1503.797607421875	331.2204895019531	386.568328857422	-1426.051025390625	376.7662353515625	961.5436401367189	-1047.359375	341.0330810546875	821.3415527343751	-956.3046875	353.0171508789062	757.5586547851564	-959.8975830078125	314.3602600097656	767.8615112304688	-927.3098754882812	310.819580078125	544.0364379882812	-923.9813232421875	362.1895751953125	483.2897033691407	-915.5025024414062	312.8986206054688	481.0336303710938	-923.6448974609375	350.0261535644531	394.3463745117188	-923.3982543945312	322.7857971191406	373.5253601074219	-998.73779296875	
736	3.675	321.3975524902344	292.9992980957032	-2226.805419921875	332.1190490722656	278.8166809082031	-205.1415405273437	602.25244140625	1089.959594726562	-1200.062866210938	570.077392578125	1135.212768554688	-1136.7236328125	573.5897827148438	1129.788330078125	-1272.19091796875	322.5830078125	1068.548950195312	-1206.08837890625	181.8992767333984	983.9578247070314	-1208.145141601562	156.9373168945312	965.5936279296876	-1230.01806640625	148.2993621826172	960.2744140625001	-1181.050537109375	109.0703506469727	921.4398803710939	-1217.716064453125	76.72666931152344	885.4451293945314	-1215.857177734375	39.75800704956055	886.9607543945314	-1230.413940429688	39.08732604980469	882.4435424804689	-1179.92333984375	-7.937816143035889	845.9926757812501	-1209.60888671875	-97.58761596679688	760.6431274414064	-1237.102172851562	-95.53508758544922	755.8355712890626	-1185.854370117188	-125.9788131713867	704.6231079101564	-1214.607543945312	124.2154083251953	502.2972106933595	-1428.739013671875	144.2388916015625	430.4634399414064	-1404.433227539062	173.8554077148438	468.0048828125001	-1421.668334960938	239.6103973388672	290.6370544433595	-1435.191162109375	173.3818664550781	247.833953857422	-1422.450927734375	219.9582824707031	233.9298858642579	-1425.695922851562	78.85746002197266	69.53470611572274	-1317.700073242188	294.6851501464844	46.74363327026375	-1331.188232421875	242.2327575683594	29.62597846984872	-1431.302368164062	114.2217254638672	497.4201965332032	-1007.267700195312	189.9222717285156	516.9417724609376	-988.7092895507812	172.2880554199219	474.7059936523438	-1009.610656738281	233.5769348144531	311.4957275390626	-998.2117919921875	243.0031280517578	233.1798706054688	-1005.351013183594	201.1189575195312	259.8790588378907	-1011.624328613281	81.73058319091797	63.69922256469734	-1120.8642578125	292.4865417480469	46.38893890380866	-1098.573364257812	234.8771514892578	39.59676361083991	-1000.321472167969	408.9732666015625	892.6645507812501	-1210.509033203125	335.5303344726562	766.4583740234376	-1214.025634765625	367.5226745605469	969.7078857421876	-1378.726196289062	336.59228515625	822.5379028320314	-1475.622436523438	315.2687683105469	763.7504272460939	-1496.27001953125	353.7680053710938	760.7760009765626	-1462.203491210938	317.1343078613281	556.9512939453126	-1506.726684570312	268.7343139648438	495.1349487304689	-1497.128173828125	318.1012878417969	495.4568481445314	-1504.77783203125	342.9804077148438	391.6820068359376	-1503.839477539062	331.2389831542969	386.5891418457032	-1426.090454101562	376.4426879882812	961.6182861328126	-1047.301879882812	340.6892395019531	821.4097900390626	-956.1471557617188	352.77734375	757.6351928710939	-959.7744140625	314.0505981445312	767.895751953125	-927.2171020507812	310.6144714355469	544.0368041992188	-924.0274047851562	362.0049743652344	483.3453674316407	-915.4339599609375	312.7222900390625	481.0273132324219	-923.720703125	349.9090270996094	394.3518981933594	-923.3829956054688	322.7248840332031	373.4883117675782	-998.7523803710938	
